<svg height="24" viewBox="0 0 24 24" width="24" xmlns="http://www.w3.org/2000/svg"><g fill="none" fill-rule="evenodd"><path d="m0 0h24v24h-24z"/><path d="m11.99 1.96824584c1.023158 0 1.9706478.52091348 2.5123519 1.3585999l.1028325.17170044 7.1 12.25000002.0618305.1264292c.3727094.9212921.2649743 1.9673683-.287687 2.7933567-.5158173.7709226-1.3567228 1.2567259-2.2802524 1.3237615l-.1990755.0079064-14.16148717-.0013263c-.96969398-.0499932-1.8552266-.5662146-2.37652295-1.3853945-.48406089-.7606672-.59846912-1.6952002-.31977893-2.5450959l.07130188-.1945096.06130276-.1251275 7.09018441-12.23266912c.52835652-.95494746 1.5336315-1.54763124 2.625-1.54763124zm.01 12.03175416c-.5522847 0-1 .4477153-1 1s.4477153 1 1 1 1-.4477153 1-1-.4477153-1-1-1zm0-6c-.5522847 0-1 .44771525-1 1v2l.0067277.1166211c.0577651.4973387.4804365.8833789.9932723.8833789.5522847 0 1-.4477153 1-1v-2l-.0067277-.11662113c-.0577651-.49733868-.4804365-.88337887-.9932723-.88337887z" fill="currentColor" fill-rule="nonzero"/></g></svg>