<svg height="24" viewBox="0 0 24 24" width="24" xmlns="http://www.w3.org/2000/svg"><g fill="none" fill-rule="evenodd"><path d="m0 0h24v24h-24z"/><path d="m12 2c5.5228475 0 10 4.4771525 10 10s-4.4771525 10-10 10-10-4.4771525-10-10 4.4771525-10 10-10zm.01 13-.1266211.0067277c-.4973387.0577651-.8833789.4804365-.8833789.9932723 0 .5522847.4477153 1 1 1l.1266211-.0067277c.4973387-.0577651.8833789-.4804365.8833789-.9932723 0-.5522847-.4477153-1-1-1zm-.01-8c-.5522847 0-1 .44771525-1 1v4l.0067277.1166211c.0577651.4973387.4804365.8833789.9932723.8833789.5522847 0 1-.4477153 1-1v-4l-.0067277-.11662113c-.0577651-.49733868-.4804365-.88337887-.9932723-.88337887z" fill="currentColor" fill-rule="nonzero"/></g></svg>