<svg height="24" viewBox="0 0 24 24" width="24" xmlns="http://www.w3.org/2000/svg"><g fill="none" fill-rule="evenodd"><path d="m0 0h24v24h-24z"/><path d="m12 2c5.5228475 0 10 4.4771525 10 10s-4.4771525 10-10 10-10-4.4771525-10-10 4.4771525-10 10-10zm3.7071068 7.29289322c-.3905243-.39052429-1.0236893-.39052429-1.4142136 0l-3.2928932 3.29210678-1.29289322-1.2921068-.09420734-.0831886c-.3922912-.3050249-.95952226-.2772953-1.32000622.0831886-.39052429.3905243-.39052429 1.0236893 0 1.4142136l1.99999998 2 .0942074.0831886c.3922912.3050249.9595222.2772953 1.3200062-.0831886l4-4 .0831886-.0942074c.3050249-.3922912.2772953-.95952222-.0831886-1.32000618z" fill="currentColor" fill-rule="nonzero"/></g></svg>