<svg height="24" viewBox="0 0 24 24" width="24" xmlns="http://www.w3.org/2000/svg"><g fill="none" fill-rule="evenodd"><path d="m0 0h24v24h-24z"/><path d="m12 2c5.5228475 0 10 4.4771525 10 10s-4.4771525 10-10 10-10-4.4771525-10-10 4.4771525-10 10-10zm0 9h-1l-.1166211.0067277c-.4973387.0577651-.8833789.4804365-.8833789.9932723 0 .5522847.4477153 1 1 1v3l.0067277.1166211c.0577651.4973387.4804365.8833789.9932723.8833789h1l.1166211-.0067277c.4973387-.0577651.8833789-.4804365.8833789-.9932723l-.0067277-.1166211c-.0533217-.4590819-.4175693-.8233295-.8766512-.8766512l-.1166211-.0067277v-3l-.0067277-.1166211c-.0577651-.4973387-.4804365-.8833789-.9932723-.8833789zm.01-4-.1266211.00672773c-.4973387.05776511-.8833789.48043643-.8833789.99327227 0 .55228475.4477153 1 1 1l.1266211-.00672773c.4973387-.05776511.8833789-.48043643.8833789-.99327227 0-.55228475-.4477153-1-1-1z" fill="currentColor" fill-rule="nonzero"/></g></svg>